<svg width="18" height="11" viewBox="0 0 18 11" fill="none" xmlns="http://www.w3.org/2000/svg">
<path d="M16.0646 11H1.21572C0.89367 10.9996 0.584927 10.8824 0.357205 10.674C0.129483 10.4656 0.00137415 10.183 0.000976562 9.88831V1.11169C0.00137415 0.816961 0.129483 0.53441 0.357205 0.326007C0.584927 0.117604 0.89367 0.00036386 1.21572 0H16.0646C16.3866 0.00036386 16.6953 0.117604 16.9231 0.326007C17.1508 0.53441 17.2789 0.816961 17.2793 1.11169V9.88831C17.2789 10.183 17.1508 10.4656 16.9231 10.674C16.6953 10.8824 16.3866 10.9996 16.0646 11ZM1.21572 0.6875C1.09283 0.687636 0.975024 0.732371 0.888131 0.811892C0.801239 0.891413 0.752357 0.999228 0.752208 1.11169V9.88831C0.752357 10.0008 0.801239 10.1086 0.888131 10.1881C0.975024 10.2676 1.09283 10.3124 1.21572 10.3125H16.0646C16.1874 10.3124 16.3052 10.2676 16.3921 10.1881C16.479 10.1086 16.5279 10.0008 16.5281 9.88831V1.11169C16.5279 0.999228 16.479 0.891413 16.3921 0.811892C16.3052 0.732371 16.1874 0.687636 16.0646 0.6875H1.21572Z" fill="black"/>
<path d="M16.9037 2.40625H0.376592C0.276973 2.40625 0.181434 2.37003 0.110992 2.30557C0.0405503 2.2411 0.000976562 2.15367 0.000976562 2.0625C0.000976562 1.97133 0.0405503 1.8839 0.110992 1.81943C0.181434 1.75497 0.276973 1.71875 0.376592 1.71875H16.9037C17.0033 1.71875 17.0988 1.75497 17.1693 1.81943C17.2397 1.8839 17.2793 1.97133 17.2793 2.0625C17.2793 2.15367 17.2397 2.2411 17.1693 2.30557C17.0988 2.37003 17.0033 2.40625 16.9037 2.40625Z" fill="black"/>
<path d="M16.9037 4.46875H0.376592C0.276973 4.46875 0.181434 4.43253 0.110992 4.36807C0.0405503 4.3036 0.000976562 4.21617 0.000976562 4.125C0.000976562 4.03383 0.0405503 3.9464 0.110992 3.88193C0.181434 3.81747 0.276973 3.78125 0.376592 3.78125H16.9037C17.0033 3.78125 17.0988 3.81747 17.1693 3.88193C17.2397 3.9464 17.2793 4.03383 17.2793 4.125C17.2793 4.21617 17.2397 4.3036 17.1693 4.36807C17.0988 4.43253 17.0033 4.46875 16.9037 4.46875Z" fill="black"/>
<path d="M10.1426 8.25H4.88396C4.78434 8.25 4.6888 8.21378 4.61836 8.14932C4.54792 8.08485 4.50834 7.99742 4.50834 7.90625C4.50834 7.81508 4.54792 7.72765 4.61836 7.66318C4.6888 7.59872 4.78434 7.5625 4.88396 7.5625H9.1654C9.49764 7.5625 9.76696 7.29317 9.76696 6.96094C9.76696 6.6287 9.49763 6.35938 9.1654 6.35938H2.85621C2.52398 6.35938 2.25465 6.6287 2.25465 6.96094C2.25465 7.29317 2.52398 7.5625 2.85621 7.5625H3.00588C3.1055 7.5625 3.20104 7.59872 3.27148 7.66318C3.34192 7.72765 3.3815 7.81508 3.3815 7.90625C3.3815 7.99742 3.34192 8.08485 3.27148 8.14932C3.20104 8.21378 3.1055 8.25 3.00588 8.25H1.87903C1.77941 8.25 1.68387 8.21378 1.61343 8.14932C1.54299 8.08485 1.50342 7.99742 1.50342 7.90625V6.01562C1.50342 5.92446 1.54299 5.83702 1.61343 5.77256C1.68387 5.70809 1.77941 5.67188 1.87903 5.67188H10.1426C10.2422 5.67188 10.3377 5.70809 10.4082 5.77256C10.4786 5.83702 10.5182 5.92446 10.5182 6.01562V7.90625C10.5182 7.99742 10.4786 8.08485 10.4082 8.14932C10.3377 8.21378 10.2422 8.25 10.1426 8.25Z" fill="black"/>
<path d="M15.4012 6.35938H11.8329C11.7333 6.35938 11.6377 6.32316 11.5673 6.25869C11.4968 6.19423 11.4573 6.10679 11.4573 6.01562C11.4573 5.92446 11.4968 5.83702 11.5673 5.77256C11.6377 5.70809 11.7333 5.67188 11.8329 5.67188H15.4012C15.5009 5.67188 15.5964 5.70809 15.6668 5.77256C15.7373 5.83702 15.7769 5.92446 15.7769 6.01562C15.7769 6.10679 15.7373 6.19423 15.6668 6.25869C15.5964 6.32316 15.5009 6.35938 15.4012 6.35938Z" fill="black"/>
<path d="M13.8988 7.73438H12.0207C11.9211 7.73438 11.8255 7.69816 11.7551 7.63369C11.6847 7.56923 11.6451 7.48179 11.6451 7.39062C11.6451 7.29946 11.6847 7.21202 11.7551 7.14756C11.8255 7.08309 11.9211 7.04688 12.0207 7.04688H13.8988C13.9984 7.04688 14.0939 7.08309 14.1644 7.14756C14.2348 7.21202 14.2744 7.29946 14.2744 7.39062C14.2744 7.48179 14.2348 7.56923 14.1644 7.63369C14.0939 7.69816 13.9984 7.73438 13.8988 7.73438Z" fill="black"/>
</svg>
