<svg width="16" height="9" viewBox="0 0 16 9" fill="none" xmlns="http://www.w3.org/2000/svg">
<path fill-rule="evenodd" clip-rule="evenodd" d="M10.6625 8.18624C13.1541 8.18624 15.174 6.51218 15.174 4.44712C15.174 2.38207 13.1541 0.708008 10.6625 0.708008C9.54581 0.708008 8.52387 1.04427 7.73606 1.6013C6.94828 1.04437 5.92642 0.708171 4.80983 0.708171C2.3182 0.708171 0.29834 2.38223 0.29834 4.44729C0.29834 6.51234 2.3182 8.1864 4.80983 8.1864C5.92653 8.1864 6.94848 7.85014 7.73629 7.29311C8.52407 7.85004 9.54592 8.18624 10.6625 8.18624Z" fill="#ED0006"/>
<path fill-rule="evenodd" clip-rule="evenodd" d="M7.73621 7.29304C8.70625 6.60721 9.32135 5.5867 9.32135 4.44712C9.32135 3.30755 8.70625 2.28703 7.73621 1.60121C8.524 1.04424 9.5459 0.708008 10.6625 0.708008C13.1542 0.708008 15.174 2.38207 15.174 4.44712C15.174 6.51218 13.1542 8.18624 10.6625 8.18624C9.5459 8.18624 8.524 7.85001 7.73621 7.29304Z" fill="#F9A000"/>
<path fill-rule="evenodd" clip-rule="evenodd" d="M7.73625 7.29279C8.70625 6.60696 9.32132 5.58648 9.32132 4.44693C9.32132 3.30738 8.70625 2.2869 7.73625 1.60107C6.76625 2.2869 6.15118 3.30738 6.15118 4.44693C6.15118 5.58648 6.76625 6.60696 7.73625 7.29279Z" fill="#FF5E00"/>
</svg>
