<svg width="18" height="7" viewBox="0 0 18 7" fill="none" xmlns="http://www.w3.org/2000/svg">
<path fill-rule="evenodd" clip-rule="evenodd" d="M5.02574 6.00692H3.62391L2.5727 1.52721C2.52281 1.32114 2.41687 1.13897 2.26103 1.05311C1.87213 0.837334 1.44358 0.665612 0.976074 0.579004V0.406535H3.23432C3.54599 0.406535 3.77974 0.665612 3.8187 0.966499L4.36413 4.19786L5.76528 0.406535H7.12816L5.02574 6.00692ZM7.90737 6.00692H6.58345L7.67362 0.406535H8.99753L7.90737 6.00692ZM10.7103 1.95798C10.7492 1.65635 10.983 1.48388 11.2557 1.48388C11.6843 1.44058 12.1511 1.52718 12.5407 1.74221L12.7744 0.53642C12.3848 0.363951 11.9563 0.277344 11.5674 0.277344C10.2824 0.277344 9.34741 1.05308 9.34741 2.1297C9.34741 2.94875 10.0097 3.3788 10.4772 3.63787C10.983 3.8962 11.1778 4.06867 11.1388 4.327C11.1388 4.7145 10.7492 4.88697 10.3603 4.88697C9.89284 4.88697 9.42533 4.7578 8.99747 4.54203L8.76371 5.74857C9.23122 5.96359 9.737 6.0502 10.2045 6.0502C11.6453 6.09276 12.5407 5.31777 12.5407 4.15453C12.5407 2.68967 10.7103 2.60381 10.7103 1.95798V1.95798ZM17.174 6.00692L16.1228 0.406535H14.9937C14.7599 0.406535 14.5262 0.579004 14.4483 0.837334L12.5017 6.00692H13.8646L14.1366 5.18863H15.8111L15.967 6.00692H17.174ZM15.1885 1.91419L15.5774 4.02489H14.4872L15.1885 1.91419Z" fill="#172B85"/>
</svg>
