<svg width="54" height="54" viewBox="0 0 54 54" fill="none" xmlns="http://www.w3.org/2000/svg">
<path d="M30.9015 49.086C36.7841 43.9087 47.25 33.3315 47.25 23.625C47.25 18.2544 45.1165 13.1037 41.3189 9.30609C37.5213 5.50848 32.3706 3.375 27 3.375C21.6294 3.375 16.4787 5.50848 12.6811 9.30609C8.88348 13.1037 6.75 18.2544 6.75 23.625C6.75 33.3315 17.2125 43.9087 23.0985 49.086C24.1721 50.0443 25.5609 50.5739 27 50.5739C28.4391 50.5739 29.8279 50.0443 30.9015 49.086ZM20.25 23.625C20.25 21.8348 20.9612 20.1179 22.227 18.852C23.4929 17.5862 25.2098 16.875 27 16.875C28.7902 16.875 30.5071 17.5862 31.773 18.852C33.0388 20.1179 33.75 21.8348 33.75 23.625C33.75 25.4152 33.0388 27.1321 31.773 28.398C30.5071 29.6638 28.7902 30.375 27 30.375C25.2098 30.375 23.4929 29.6638 22.227 28.398C20.9612 27.1321 20.25 25.4152 20.25 23.625Z" fill="#E94235"/>
</svg>
