<svg width="21" height="23" viewBox="0 0 21 23" fill="none" xmlns="http://www.w3.org/2000/svg">
<path d="M16.6564 7.51709C16.6564 5.92579 16.0242 4.39967 14.899 3.27445C13.7738 2.14923 12.2477 1.51709 10.6564 1.51709C9.06507 1.51709 7.53895 2.14923 6.41373 3.27445C5.28851 4.39967 4.65637 5.92579 4.65637 7.51709C4.65637 14.5171 1.65637 16.5171 1.65637 16.5171H19.6564C19.6564 16.5171 16.6564 14.5171 16.6564 7.51709Z" stroke="black" stroke-width="2" stroke-linecap="round" stroke-linejoin="round"/>
<path d="M12.3864 20.5171C12.2106 20.8202 11.9582 21.0717 11.6546 21.2466C11.351 21.4215 11.0068 21.5135 10.6564 21.5135C10.306 21.5135 9.96178 21.4215 9.65816 21.2466C9.35455 21.0717 9.1022 20.8202 8.92639 20.5171" stroke="black" stroke-width="2" stroke-linecap="round" stroke-linejoin="round"/>
</svg>
