<svg width="205" height="34" viewBox="0 0 205 34" fill="none" xmlns="http://www.w3.org/2000/svg">
<path d="M12.68 26.304C8.84 26.304 5.88533 25.3387 3.816 23.408C1.75733 21.4667 0.728 18.4 0.728 14.208C0.728 10.1333 1.77867 7.08267 3.88 5.056C5.992 3.02933 9.01067 2.016 12.936 2.016C14.8027 2.016 16.6373 2.24533 18.44 2.704V5.664C16.7013 5.20533 14.936 4.976 13.144 4.976C10.2213 4.976 8.03467 5.70667 6.584 7.168C5.13333 8.61867 4.408 10.944 4.408 14.144C4.408 16.3627 4.73867 18.1493 5.4 19.504C6.06133 20.8587 7.016 21.84 8.264 22.448C9.52267 23.0453 11.08 23.344 12.936 23.344C13.8853 23.344 14.7973 23.2747 15.672 23.136C16.5573 22.9973 17.48 22.7733 18.44 22.464V25.424C16.68 26.0107 14.76 26.304 12.68 26.304ZM21.9793 26V0.143999H25.4353V26H21.9793ZM36.163 8.32C37.891 8.32 39.299 8.53333 40.387 8.96C41.4857 9.38667 42.307 10.0907 42.851 11.072C43.395 12.0533 43.667 13.3813 43.667 15.056V26H40.787L40.531 24.112H40.339C39.7523 24.8053 38.995 25.344 38.067 25.728C37.139 26.1013 36.1417 26.288 35.075 26.288C33.8803 26.288 32.8563 26.0907 32.003 25.696C31.1497 25.3013 30.499 24.7413 30.051 24.016C29.603 23.28 29.379 22.4213 29.379 21.44C29.379 19.8827 29.9283 18.6773 31.027 17.824C32.1363 16.96 33.8963 16.4213 36.307 16.208L40.275 15.808V14.864C40.275 13.872 40.1097 13.0987 39.779 12.544C39.459 11.9787 38.963 11.584 38.291 11.36C37.6297 11.1253 36.7497 11.008 35.651 11.008C34.883 11.008 34.0563 11.072 33.171 11.2C32.2857 11.328 31.4377 11.5253 30.627 11.792V9.12C31.427 8.864 32.323 8.66667 33.315 8.528C34.307 8.38933 35.2563 8.32 36.163 8.32ZM36.035 23.808C36.8243 23.808 37.5817 23.6587 38.307 23.36C39.043 23.0613 39.699 22.6133 40.275 22.016V17.92L36.579 18.288C35.2563 18.4267 34.3017 18.7307 33.715 19.2C33.1283 19.6587 32.835 20.3093 32.835 21.152C32.835 22.0053 33.1017 22.6613 33.635 23.12C34.1683 23.5787 34.9683 23.808 36.035 23.808ZM60.9303 8.592H64.3542L54.5943 33.04H51.1703L54.0023 26H53.0743L46.1463 8.592H49.7943L55.2983 23.152L60.9303 8.592ZM66.634 18.416V15.536H76.778V18.416H66.634ZM92.8675 26.304C89.0275 26.304 86.0728 25.3387 84.0035 23.408C81.9448 21.4667 80.9155 18.4 80.9155 14.208C80.9155 10.1333 81.9662 7.08267 84.0675 5.056C86.1795 3.02933 89.1982 2.016 93.1235 2.016C94.9902 2.016 96.8248 2.24533 98.6275 2.704V5.664C96.8888 5.20533 95.1235 4.976 93.3315 4.976C90.4088 4.976 88.2222 5.70667 86.7715 7.168C85.3208 8.61867 84.5955 10.944 84.5955 14.144C84.5955 16.3627 84.9262 18.1493 85.5875 19.504C86.2488 20.8587 87.2035 21.84 88.4515 22.448C89.7102 23.0453 91.2675 23.344 93.1235 23.344C94.0728 23.344 94.9848 23.2747 95.8595 23.136C96.7448 22.9973 97.6675 22.7733 98.6275 22.464V25.424C96.8675 26.0107 94.9475 26.304 92.8675 26.304ZM108.464 26.32C106.768 26.32 105.301 25.9947 104.064 25.344C102.837 24.6827 101.888 23.68 101.216 22.336C100.544 20.992 100.208 19.3173 100.208 17.312C100.208 14.3253 100.933 12.08 102.384 10.576C103.834 9.072 105.861 8.32 108.464 8.32C111.077 8.32 113.104 9.072 114.544 10.576C115.994 12.0693 116.72 14.3147 116.72 17.312C116.72 19.296 116.378 20.96 115.696 22.304C115.024 23.648 114.069 24.656 112.832 25.328C111.605 25.9893 110.149 26.32 108.464 26.32ZM108.464 23.584C110.01 23.584 111.189 23.0987 112 22.128C112.821 21.1467 113.232 19.5467 113.232 17.328C113.232 15.0987 112.821 13.4987 112 12.528C111.189 11.5467 110.01 11.056 108.464 11.056C106.917 11.056 105.733 11.5413 104.912 12.512C104.101 13.4827 103.696 15.072 103.696 17.28C103.696 19.52 104.101 21.1307 104.912 22.112C105.722 23.0933 106.906 23.584 108.464 23.584ZM120.698 8.592H123.562L123.802 10.512H123.994C124.751 9.808 125.626 9.26933 126.618 8.896C127.621 8.512 128.671 8.32 129.77 8.32C131.69 8.32 133.199 8.864 134.298 9.952C135.397 11.0293 135.946 12.7253 135.946 15.04V26H132.49V15.2C132.49 13.8133 132.181 12.8213 131.562 12.224C130.954 11.6267 130.058 11.328 128.874 11.328C128.01 11.328 127.157 11.4987 126.314 11.84C125.471 12.1707 124.751 12.6827 124.154 13.376V26H120.698V8.592ZM140.636 8.592H143.5L143.74 10.512H143.932C144.689 9.808 145.564 9.26933 146.556 8.896C147.558 8.512 148.609 8.32 149.708 8.32C151.628 8.32 153.137 8.864 154.236 9.952C155.334 11.0293 155.884 12.7253 155.884 15.04V26H152.428V15.2C152.428 13.8133 152.118 12.8213 151.5 12.224C150.892 11.6267 149.996 11.328 148.812 11.328C147.948 11.328 147.094 11.4987 146.252 11.84C145.409 12.1707 144.689 12.6827 144.092 13.376V26H140.636V8.592ZM174.893 18.352H163.117C163.17 19.6213 163.416 20.6453 163.853 21.424C164.301 22.192 164.968 22.7573 165.853 23.12C166.738 23.472 167.885 23.648 169.293 23.648C170.722 23.648 172.28 23.4187 173.965 22.96V25.616C172.205 26.0853 170.493 26.32 168.829 26.32C165.746 26.32 163.442 25.5947 161.917 24.144C160.402 22.6827 159.645 20.4 159.645 17.296C159.645 15.3547 159.949 13.7173 160.557 12.384C161.176 11.04 162.066 10.0267 163.229 9.344C164.402 8.66133 165.81 8.32 167.453 8.32C169.864 8.32 171.704 9.09333 172.973 10.64C174.253 12.176 174.893 14.4267 174.893 17.392V18.352ZM167.421 10.64C166.034 10.64 164.978 11.0827 164.253 11.968C163.528 12.8533 163.144 14.2667 163.101 16.208H171.629C171.586 14.2667 171.213 12.8533 170.509 11.968C169.816 11.0827 168.786 10.64 167.421 10.64ZM186.332 26.32C183.516 26.32 181.367 25.5733 179.884 24.08C178.412 22.5867 177.676 20.3307 177.676 17.312C177.676 14.2933 178.46 12.0427 180.028 10.56C181.596 9.06667 183.89 8.32 186.908 8.32C188.402 8.32 189.74 8.48533 190.924 8.816V11.616C189.666 11.3067 188.45 11.152 187.276 11.152C185.207 11.152 183.682 11.6373 182.7 12.608C181.73 13.568 181.244 15.12 181.244 17.264C181.244 19.44 181.703 21.024 182.62 22.016C183.538 22.9973 184.924 23.488 186.78 23.488C187.388 23.488 188.018 23.4293 188.668 23.312C189.33 23.1947 190.082 23.0133 190.924 22.768V25.568C189.474 26.0693 187.943 26.32 186.332 26.32ZM202.767 23.424C203.396 23.424 204.132 23.3333 204.975 23.152V25.952C204.004 26.1867 202.985 26.304 201.919 26.304C199.881 26.304 198.324 25.7973 197.247 24.784C196.18 23.7707 195.647 22.2187 195.647 20.128V11.376H192.351V8.592H195.647L196.255 2.32H199.103V8.592H204.751V11.376H199.103V19.536C199.103 20.944 199.396 21.9467 199.983 22.544C200.58 23.1307 201.508 23.424 202.767 23.424Z" fill="black"/>
</svg>
