<svg width="56" height="73" viewBox="0 0 56 73" fill="none" xmlns="http://www.w3.org/2000/svg">
<path d="M44.4589 16.4729C45.5813 17.0795 46.6696 17.7471 47.7189 18.4729C49.8711 19.8561 51.533 21.8819 52.4689 24.2629C52.9352 25.4516 53.0698 26.7446 52.8585 28.0039C52.6471 29.2632 52.0977 30.4415 51.2689 31.4129C51.1695 31.495 51.0882 31.597 51.0302 31.7123C50.9723 31.8275 50.939 31.9536 50.9324 32.0825C50.9258 32.2113 50.9461 32.3401 50.992 32.4607C51.0379 32.5813 51.1084 32.691 51.1989 32.7829C53.3766 35.7078 54.808 39.1197 55.3689 42.7229C56.3375 48.1787 55.342 53.8013 52.5589 58.5929C49.7177 63.6104 45.3039 67.5533 39.9989 69.8129C35.6745 71.7696 30.9358 72.6349 26.1989 72.3329C21.4278 72.0674 16.7906 70.6577 12.6789 68.2229C9.41797 66.3847 6.61442 63.8336 4.47764 60.76C2.34086 57.6865 0.926078 54.1699 0.338935 50.4729C-0.629802 44.8649 0.494715 39.0964 3.49894 34.2629C3.86916 33.6725 4.26969 33.1018 4.69894 32.5529C4.75382 32.5059 4.79789 32.4477 4.82811 32.3821C4.85833 32.3165 4.87397 32.2451 4.87397 32.1729C4.87397 32.1006 4.85833 32.0293 4.82811 31.9637C4.79789 31.8981 4.75382 31.8398 4.69894 31.7929C3.69487 30.6563 3.06319 29.2394 2.88894 27.7329C2.75829 26.4178 2.93106 25.0903 3.39394 23.8525C3.85682 22.6147 4.59748 21.4995 5.55894 20.5929C7.80678 18.3346 10.544 16.6238 13.5589 15.5929C16.8704 14.3605 20.3367 13.5932 23.8589 13.3129C27.0314 13.0277 30.2247 13.0679 33.3889 13.4329C34.5289 13.8829 35.1989 13.2329 35.9289 12.4929C39.5389 8.83286 43.1789 5.20286 46.8089 1.57286C47.3747 0.931933 48.1061 0.459361 48.9229 0.207083C49.7398 -0.0451958 50.6103 -0.0674158 51.4389 0.142865C52.1753 0.32239 52.8555 0.682259 53.4182 1.19007C53.9809 1.69787 54.4085 2.33767 54.6625 3.05184C54.9164 3.76601 54.9887 4.53212 54.8729 5.28118C54.757 6.03025 54.4567 6.73874 53.9989 7.34286C53.1299 8.40854 52.1586 9.38654 51.0989 10.2629C49.0989 12.1629 47.0989 14.0429 45.0989 15.9229L44.4589 16.4729Z" fill="#391C18"/>
<path d="M43.3489 47.213C40.8575 48.6134 38.2046 49.7048 35.4489 50.463C31.8247 51.4828 28.1111 52.1526 24.3589 52.463C20.9261 52.6623 17.5187 53.1745 14.1789 53.993C11.622 54.6564 9.2132 55.7964 7.07893 57.353C6.75893 57.593 6.61893 57.633 6.38893 57.223C5.37129 55.3984 4.61714 53.439 4.14893 51.403C4.25934 51.3813 4.37385 51.4028 4.46893 51.463C5.17893 51.763 5.73893 51.463 5.74893 50.703C5.75893 49.943 5.87893 48.943 5.88893 48.063C5.92199 44.9161 6.84036 41.8422 8.53893 39.193C8.71516 38.8628 8.91923 38.5484 9.14893 38.253C9.28893 38.073 9.42893 37.883 9.68893 37.893C11.0726 38.7462 12.5126 39.5046 13.9989 40.163C16.8336 41.2881 19.7905 42.0768 22.8089 42.513C25.2539 42.8324 27.7139 43.0227 30.1789 43.083C30.6323 43.0991 31.0736 43.2335 31.4589 43.473C33.4589 44.703 35.5689 44.653 37.7489 44.473C38.7004 44.3123 39.6768 44.3878 40.5922 44.693C41.5077 44.9981 42.3341 45.5235 42.9989 46.223C43.2289 46.493 43.5289 46.773 43.3489 47.213Z" fill="#C4917C"/>
<path d="M45.3887 20.9927C46.6701 21.7645 47.7094 22.88 48.3887 24.2127C49.3887 26.2627 48.9487 28.3927 47.1287 30.2127C45.3449 31.8691 43.2026 33.0908 40.8687 33.7827C35.8243 35.4733 30.4961 36.1529 25.1887 35.7827C21.7487 35.628 18.3465 34.9988 15.0787 33.9127C12.5599 33.1702 10.2602 31.8247 8.37875 29.9927C7.42008 29.0993 6.85047 27.8653 6.7925 26.5561C6.73452 25.247 7.19281 23.9674 8.06875 22.9927C9.77404 20.9935 11.9841 19.4879 14.4687 18.6327C18.4384 17.1358 22.6463 16.3701 26.8887 16.3727C28.54 16.3059 30.1939 16.3527 31.8387 16.5127C31.1887 17.1827 30.5487 17.7527 30.0087 18.4127C29.801 18.6588 29.5343 18.8484 29.2336 18.9638C28.9329 19.0792 28.6078 19.1167 28.2887 19.0727C23.8986 18.9143 19.5214 19.6421 15.4187 21.2127C14.3875 21.6216 13.4156 22.1664 12.5287 22.8327C10.1587 24.6427 10.1287 27.2427 12.4687 29.1027C14.4303 30.5796 16.6945 31.6041 19.0987 32.1027C22.9298 33.0211 26.8824 33.3248 30.8087 33.0027C34.335 32.8124 37.793 31.9538 40.9987 30.4727C42.04 29.9881 42.9904 29.3285 43.8088 28.5227C44.166 28.2153 44.4548 27.8363 44.6564 27.4102C44.858 26.9842 44.9681 26.5206 44.9794 26.0494C44.9907 25.5782 44.903 25.1098 44.7221 24.6746C44.5411 24.2394 44.2708 23.847 43.9287 23.5227C43.1666 22.6617 42.2243 21.9789 41.1687 21.5227C40.9514 21.4198 40.741 21.3028 40.5387 21.1727C40.5387 20.9627 40.7188 20.9527 40.8587 20.9527C42.3687 20.9927 43.8787 20.8527 45.3887 20.9927Z" fill="#FAFCEC"/>
<path d="M40.8687 28.1127C39.1056 29.1608 37.1679 29.8824 35.1487 30.2427C31.9108 30.9348 28.5905 31.1604 25.2887 30.9127C22.7779 30.7865 20.294 30.3361 17.8987 29.5727C17.7387 29.5727 17.5587 29.5127 17.4687 29.3427C17.0987 29.1027 17.3287 28.8427 17.4687 28.6327C18.0374 27.7825 18.8495 27.1238 19.7987 26.7427C20.1756 26.4992 20.6209 26.3835 21.0687 26.4127C21.0105 26.8433 21.0494 27.2815 21.1827 27.6951C21.3159 28.1086 21.5401 28.4871 21.8387 28.8027C22.055 29.0278 22.3373 29.1782 22.6447 29.2321C22.9521 29.2861 23.2688 29.2407 23.5487 29.1027C23.678 29.0557 23.7961 28.9825 23.8958 28.8878C23.9955 28.793 24.0745 28.6787 24.128 28.552C24.1815 28.4253 24.2083 28.2889 24.2067 28.1514C24.2051 28.0139 24.1751 27.8782 24.1187 27.7527C23.7927 27.0883 23.74 26.3226 23.9717 25.6198C24.2035 24.917 24.7014 24.3329 25.3587 23.9927C25.9239 23.6222 26.5502 23.3547 27.2087 23.2027C27.9746 23.0034 28.6681 22.5907 29.2087 22.0127C33.0687 18.0927 36.9421 14.1694 40.8287 10.2427C43.0887 7.99273 45.3787 5.69273 47.6487 3.42273C47.9704 3.04922 48.3791 2.76072 48.8387 2.58273C49.3094 2.43567 49.8177 2.46764 50.2662 2.67251C50.7147 2.87738 51.0717 3.24071 51.2687 3.69273C51.3287 4.07273 51.0787 4.29273 50.8287 4.48273C48.6787 6.17273 46.8287 8.17273 44.8287 10.0427C42.3587 12.3827 39.9187 14.7527 37.4487 17.0927C35.3587 19.0927 33.2187 20.9927 31.1787 23.0327C30.6051 23.6248 29.8228 23.9693 28.9987 23.9927C28.0169 23.9458 27.043 24.1892 26.1987 24.6927C25.95 24.816 25.7407 25.0063 25.5943 25.2422C25.448 25.4781 25.3704 25.7501 25.3704 26.0277C25.3704 26.3053 25.448 26.5774 25.5943 26.8133C25.7407 27.0491 25.95 27.2395 26.1987 27.3627C27.1857 27.9678 28.352 28.2117 29.4987 28.0527C30.4973 27.9737 31.4699 27.6948 32.3587 27.2327C33.4977 26.7136 34.7521 26.4999 35.9987 26.6127C37.5066 26.7131 38.9838 27.0857 40.3587 27.7127C40.5787 27.7927 40.8587 27.8127 40.8687 28.1127Z" fill="#C2917B"/>
<path d="M43.349 47.213C43.0998 46.6115 42.7054 46.0811 42.201 45.6692C41.6967 45.2574 41.0982 44.977 40.459 44.853C39.5295 44.6309 38.5683 44.5733 37.619 44.683C35.499 44.833 33.359 44.873 31.449 43.683C30.9616 43.3975 30.4035 43.2554 29.839 43.273C24.9559 43.2615 20.1055 42.475 15.469 40.943C13.5545 40.2409 11.7207 39.3357 9.99897 38.243C9.86309 38.1736 9.75407 38.061 9.68896 37.923C9.7178 37.7033 9.79341 37.4923 9.91072 37.3042C10.028 37.1162 10.1843 36.9555 10.369 36.833C13.0865 38.0226 15.9368 38.8821 18.859 39.393C22.0798 39.9662 25.3479 40.2307 28.619 40.183C31.3195 40.1465 34.0136 39.9091 36.679 39.473C36.759 39.473 36.829 39.473 36.909 39.553C36.2206 39.9605 35.4709 40.2542 34.689 40.423C34.319 40.543 33.929 40.613 33.559 40.753C33.3315 40.8018 33.1282 40.9283 32.984 41.1109C32.8398 41.2934 32.7638 41.5205 32.769 41.753C32.7908 41.9914 32.8878 42.2167 33.046 42.3965C33.2041 42.5762 33.4153 42.701 33.649 42.753C34.0866 42.9023 34.5614 42.9023 34.999 42.753C35.7071 42.5216 36.456 42.4421 37.1969 42.5196C37.9379 42.5971 38.6541 42.83 39.299 43.203C39.8566 43.4761 40.4438 43.6842 41.049 43.823C41.7975 43.9614 42.5666 43.944 43.3081 43.7719C44.0497 43.5999 44.7478 43.2769 45.359 42.823C47.0933 41.6507 48.5256 40.0847 49.539 38.253C49.789 37.793 49.929 37.863 50.169 38.253C50.5174 38.8549 50.8248 39.4797 51.089 40.123C51.249 40.483 51.009 40.703 50.839 40.923C49.8114 42.2255 48.6556 43.4215 47.389 44.493C46.2159 45.4347 44.9906 46.3094 43.719 47.113C43.5992 47.1585 43.4753 47.192 43.349 47.213Z" fill="#945A4D"/>
<path d="M36.9091 56.3627C36.9143 56.8053 36.7964 57.2408 36.5687 57.6204C36.3409 58 36.0122 58.3089 35.6191 58.5127C35.3317 58.6613 35.0846 58.8775 34.8991 59.1427C34.7758 59.3111 34.718 59.5186 34.7364 59.7265C34.7548 59.9344 34.8481 60.1285 34.9991 60.2727C35.15 60.4118 35.2935 60.5587 35.4291 60.7127C35.5122 60.7768 35.5782 60.8604 35.6213 60.9561C35.6644 61.0518 35.6834 61.1566 35.6765 61.2613C35.6695 61.366 35.637 61.4674 35.5816 61.5566C35.5263 61.6458 35.4499 61.72 35.3591 61.7727C34.9156 62.0886 34.3998 62.288 33.8591 62.3527C33.586 62.4106 33.3082 62.4441 33.0291 62.4527C32.8876 62.4678 32.7445 62.4485 32.6122 62.3962C32.4798 62.344 32.3621 62.2604 32.2691 62.1527C31.9291 61.8127 32.0591 61.4327 32.5091 61.3027C32.6591 61.3027 32.8991 61.3027 32.9391 61.1227C32.9434 61.0086 32.9213 60.8951 32.8745 60.791C32.8276 60.6869 32.7573 60.5951 32.6691 60.5227C32.5651 60.4439 32.4507 60.38 32.3291 60.3327C32.0591 60.2027 31.9091 60.2427 31.8691 60.5727C31.8091 61.2027 31.6091 61.8327 32.1091 62.3927C32.1752 62.4631 32.212 62.5561 32.212 62.6527C32.212 62.7493 32.1752 62.8422 32.1091 62.9127L31.8791 63.1427C31.5291 63.5827 31.1891 63.2227 30.8791 63.1427C30.7833 63.1082 30.696 63.0538 30.6227 62.9832C30.5495 62.9125 30.4921 62.8271 30.4543 62.7326C30.4165 62.6381 30.3992 62.5366 30.4035 62.435C30.4077 62.3333 30.4335 62.2337 30.4791 62.1427C30.0062 62.1578 29.5436 62.2846 29.1291 62.5127C28.9506 62.634 28.745 62.7093 28.5304 62.732C28.3158 62.7546 28.099 62.724 27.8991 62.6427C27.4691 62.4527 27.4591 62.2627 27.8391 61.9427C28.1246 61.8455 28.4196 61.7784 28.7191 61.7427C29.0628 61.7022 29.3992 61.6147 29.7191 61.4827C29.9291 61.3827 30.2191 61.2927 30.1091 60.9727C29.9991 60.6527 29.7491 60.6727 29.4891 60.7227C28.3691 60.9527 27.2291 61.1127 26.0891 61.2427C25.3191 61.3227 24.5491 61.3527 23.7891 61.4327C23.4291 61.4327 22.9591 61.4327 22.9991 61.9427C23.0391 62.4527 23.5091 62.3427 23.8291 62.3027C24.3893 62.2297 24.9548 62.2062 25.5191 62.2327C25.6891 62.2327 25.9091 62.2927 25.8891 62.5027C25.8891 63.0327 26.2891 63.1327 26.6091 63.3027C26.9291 63.4727 27.2291 63.5027 27.1691 63.9427C27.1569 64.1685 27.061 64.3817 26.9002 64.5407C26.7393 64.6996 26.5251 64.7931 26.2991 64.8027C25.5991 64.8027 24.9191 64.8827 24.2291 64.9327C22.1791 64.9327 20.1391 64.6727 18.0891 64.7027C17.1591 64.7027 16.4091 64.8827 16.0891 65.8727C16.0891 66.0027 15.9591 66.1127 15.7991 66.0027C13.9081 65.0419 12.1528 63.8347 10.5791 62.4127C10.6291 62.1027 10.8891 61.9627 11.1191 61.7927C12.4365 60.9512 13.8821 60.3298 15.3991 59.9527C17.8933 59.2953 20.4451 58.88 23.0191 58.7127C26.7236 58.4315 30.401 57.8665 34.0191 57.0227C34.7491 56.8327 35.4691 56.6127 36.1891 56.4127C36.4691 56.3127 36.6891 56.1927 36.9091 56.3627Z" fill="#92584D"/>
<path d="M27.8688 61.9931C27.7188 62.1331 27.5988 62.2331 27.8688 62.4031C28.0392 62.5259 28.2438 62.592 28.4538 62.592C28.6638 62.592 28.8685 62.5259 29.0388 62.4031C29.5888 61.9431 30.2588 62.1131 30.8988 61.7931C30.7988 62.1931 30.3088 62.5131 30.7688 62.7931C31.2288 63.0731 31.4488 63.3331 31.9288 63.1231C31.4888 64.1231 31.4988 64.4831 31.9988 64.9431C32.1896 65.1288 32.4256 65.2616 32.6834 65.3283C32.9412 65.3949 33.2119 65.3931 33.4688 65.3231C35.3877 64.841 37.2437 64.1362 38.9988 63.2231C40.7856 62.3448 42.4636 61.2608 43.9988 59.9931C45.8945 58.4143 47.5193 56.5362 48.8088 54.4331C49.7084 52.9539 50.4524 51.3855 51.0288 49.7531C51.0988 49.5831 51.1888 49.4231 51.2688 49.2431C51.3046 49.1539 51.3736 49.0821 51.4613 49.0429C51.549 49.0037 51.6486 49.0002 51.7388 49.0331C51.9588 49.1031 51.9088 49.3131 51.8888 49.4731C51.6778 50.942 51.3194 52.386 50.8188 53.7831C49.6007 57.1652 47.5348 60.178 44.8188 62.5331C42.0868 64.9714 38.8445 66.7685 35.3288 67.7931C33.7698 68.281 32.1587 68.583 30.5288 68.6931C30.029 68.6591 29.5472 68.4931 29.1326 68.212C28.718 67.9309 28.3854 67.5448 28.1688 67.0931C28.1312 66.9984 28.0685 66.9158 27.9875 66.8541C27.9064 66.7925 27.8101 66.7541 27.7088 66.7431C27.5075 66.7257 27.3151 66.6517 27.1541 66.5296C26.993 66.4075 26.8699 66.2423 26.7988 66.0531C26.4788 65.1831 25.7988 65.0531 24.9888 65.0531C24.7488 65.0531 24.4188 65.1631 24.2988 64.7831C25.0088 64.7831 25.6988 64.6231 26.4088 64.6631C27.1188 64.7031 26.9688 64.1531 27.0788 63.8431C27.1888 63.5331 26.7888 63.5731 26.5688 63.5331C26.1788 63.4531 26.0488 63.0131 25.6788 62.9031C25.5488 62.9031 25.6788 62.7631 25.7388 62.6931C25.9588 62.4131 25.7388 62.4131 25.5388 62.4031V62.3031C26.2578 61.9381 27.0795 61.8288 27.8688 61.9931Z" fill="#8D5347"/>
<path d="M36.9087 56.3629C34.6702 57.0553 32.3887 57.5998 30.0787 57.9929C28.4687 58.2629 26.8487 58.4429 25.2287 58.6029C23.3487 58.8029 21.4687 59.0529 19.5887 59.2529C17.3698 59.4973 15.1956 60.0492 13.1287 60.8929C12.2372 61.2475 11.407 61.7402 10.6687 62.3529C10.2287 61.9229 9.79874 61.4729 9.33874 61.0629C8.87874 60.6529 9.09874 60.5529 9.40874 60.2929C10.8627 59.1238 12.5255 58.2415 14.3087 57.6929C16.6803 56.9669 19.1254 56.5074 21.5987 56.3229C26.3687 55.9129 31.1487 55.5529 35.7687 54.1829C35.9068 54.1174 36.0651 54.1091 36.2092 54.1596C36.3534 54.2102 36.4718 54.3156 36.5387 54.4529C36.7522 54.6912 36.9053 54.9772 36.9854 55.2869C37.0654 55.5967 37.07 55.9211 36.9987 56.2329L36.9087 56.3629Z" fill="#C3927C"/>
<path d="M40.8692 28.1129C38.7691 27.0517 36.4113 26.6079 34.0692 26.8329C33.169 27.0257 32.2958 27.3279 31.4692 27.7329C30.049 28.3118 28.4769 28.4032 26.9992 27.9929C26.6427 27.9049 26.3091 27.7416 26.0211 27.5139C25.733 27.2862 25.4971 26.9994 25.3292 26.6729C25.1612 26.3547 25.1133 25.9867 25.194 25.6361C25.2748 25.2854 25.4789 24.9755 25.7692 24.7629C26.6616 24.1164 27.7486 23.7952 28.8492 23.8529C29.2802 23.8502 29.7062 23.7603 30.1016 23.5884C30.4969 23.4165 30.8532 23.1663 31.1492 22.8529C33.6592 20.4329 36.1492 18.0429 38.7092 15.6429L43.8492 10.7229L49.7392 5.15287C50.2492 4.67287 50.9492 4.38287 51.2692 3.69287C51.4565 3.98847 51.5322 4.34122 51.4827 4.68767C51.4332 5.03412 51.2618 5.35155 50.9992 5.58287C49.7192 6.81287 48.4092 7.99287 47.0992 9.24287C45.7892 10.4929 44.6192 11.5929 43.3592 12.7529C40.6592 15.2629 37.9392 17.7529 35.2292 20.2529C33.9892 21.3995 32.7558 22.5562 31.5292 23.7229C31.0878 24.0994 30.6124 24.4342 30.1092 24.7229C29.9264 24.8136 29.7758 24.958 29.6775 25.1367C29.5792 25.3155 29.5379 25.52 29.5592 25.7229C29.5806 25.9304 29.6634 26.1269 29.797 26.2872C29.9305 26.4475 30.1089 26.5644 30.3092 26.6229C30.7103 26.7625 31.1375 26.8108 31.5597 26.764C31.9819 26.7173 32.3883 26.5769 32.7492 26.3529C33.649 25.7114 34.6696 25.259 35.7492 25.0229C38.0269 24.771 40.3244 25.2733 42.2892 26.4529C42.5892 26.6229 42.6292 26.8129 42.3592 27.0629C41.8981 27.4609 41.3991 27.8126 40.8692 28.1129Z" fill="#945B4F"/>
<path d="M10.3288 36.8327C10.2088 37.2627 9.81884 37.5227 9.64884 37.9227C8.39942 39.496 7.45027 41.2858 6.84884 43.2027C6.18287 45.5487 5.89592 47.9861 5.99884 50.4227C6.0463 50.7029 6.00064 50.9909 5.86884 51.2427C5.43884 51.9027 4.86884 51.9627 4.18884 51.3827C3.83169 50.4225 3.64555 49.4071 3.63884 48.3827C3.27669 44.36 4.2011 40.3262 6.27884 36.8627C6.57884 36.3727 6.79884 35.6727 7.27884 35.4927C7.75884 35.3127 8.27884 35.9127 8.77884 36.1327L10.3288 36.8327Z" fill="#FAFCED"/>
<path d="M24.3587 64.7227C24.8487 64.9627 25.3587 64.7227 25.8987 64.9327C26.12 64.973 26.3275 65.0683 26.5023 65.2098C26.6771 65.3514 26.8134 65.5346 26.8987 65.7427C27.0787 66.2027 27.3387 66.7427 27.9987 66.5527C28.0987 66.5527 28.2387 66.5527 28.2487 66.6427C28.2987 67.0527 28.7987 67.2427 28.8387 67.5327C28.9187 68.1427 29.3887 68.1727 29.7587 68.2727C30.0687 68.3454 30.3589 68.4854 30.6087 68.6827C30.187 68.8245 29.7432 68.8889 29.2987 68.8727C26.9956 68.9734 24.6893 68.7717 22.4387 68.2727C20.2437 67.7983 18.1123 67.0666 16.0887 66.0927C16.0247 66.0552 15.9645 66.0116 15.9087 65.9627C16.1487 65.6727 16.1387 65.2727 16.4487 64.9627C16.7824 64.6342 17.2304 64.4478 17.6987 64.4427C19.9187 64.4027 22.1287 64.7427 24.3587 64.7227Z" fill="#814B3F"/>
<path d="M15.1889 28.3428C14.4133 28.0514 13.7393 27.5406 13.2489 26.8728C13.0489 26.6428 13.2489 26.5028 13.4089 26.3628C14.4251 25.4083 15.6036 24.6429 16.8889 24.1028C18.7131 23.3068 20.6492 22.7975 22.6289 22.5928H22.9189L23.1189 22.6728C22.481 23.2616 21.9528 23.9591 21.5589 24.7328C20.3873 24.8893 19.2471 25.2267 18.1789 25.7328C17.061 26.2387 16.1229 27.0721 15.4889 28.1228C15.457 28.1783 15.4138 28.2266 15.3622 28.2645C15.3105 28.3023 15.2515 28.329 15.1889 28.3428Z" fill="#996050"/>
<path d="M36.9988 56.2327C36.9469 55.5913 36.7147 54.9777 36.3288 54.4627C36.2628 54.3755 36.1761 54.3061 36.0766 54.2608C35.9771 54.2154 35.8679 54.1954 35.7588 54.2027C37.3488 53.7427 38.9188 53.2027 40.4488 52.6327L42.3188 51.8427C42.5388 51.7127 42.6088 51.8427 42.5988 52.0227C42.625 52.6541 42.5335 53.2848 42.3288 53.8827C41.4893 54.4749 40.5746 54.9524 39.6088 55.3027C38.7924 55.7465 37.9118 56.0602 36.9988 56.2327Z" fill="#965D4F"/>
<path d="M15.189 28.343C16.069 26.433 17.779 25.603 19.629 24.983C20.1673 24.8278 20.7151 24.7076 21.269 24.623C21.379 24.623 21.499 24.623 21.559 24.723C21.307 25.2568 21.1416 25.8273 21.069 26.413C20.326 26.6632 19.6146 26.9988 18.949 27.413C18.3695 27.7871 17.8809 28.2859 17.519 28.873C17.429 29.033 17.309 29.203 17.469 29.383C16.6477 29.1905 15.8727 28.837 15.189 28.343Z" fill="#FBFCEC"/>
<path d="M45.3887 20.9928C45.2787 21.1728 45.0987 21.1328 44.9287 21.1328C43.751 21.1095 42.5728 21.1462 41.3987 21.2428C41.1087 21.2428 40.8187 21.0128 40.5287 21.2428L39.6987 20.9128C40.3987 20.2728 41.0487 19.6928 41.6987 19.0928C41.7501 19.0283 41.8237 18.9853 41.9051 18.9724C41.9866 18.9594 42.0699 18.9774 42.1387 19.0228C43.2903 19.5596 44.3801 20.2202 45.3887 20.9928Z" fill="#DEBBAD"/>
<path d="M42.3391 53.8826C42.2691 53.2726 42.4791 52.6826 42.4591 52.0726C42.4591 51.9526 42.4591 51.8626 42.3291 51.8426C43.2391 51.2426 44.3291 50.9026 45.1791 50.2726C45.2526 50.2138 45.3372 50.1704 45.4278 50.145C45.5185 50.1197 45.6133 50.1128 45.7067 50.125C45.8001 50.1371 45.89 50.168 45.9712 50.2157C46.0523 50.2634 46.123 50.327 46.1791 50.4026C46.4591 50.7926 46.2491 51.1326 45.9391 51.4026C44.8449 52.3734 43.6359 53.2062 42.3391 53.8826Z" fill="#774136"/>
<path d="M32.1589 62.9128C32.1589 62.7928 32.1589 62.6328 32.0289 62.5528C31.3289 61.8828 31.6789 61.0728 31.7189 60.3128C31.7189 60.0328 31.8789 59.9128 32.1689 60.0528C32.3932 60.1257 32.599 60.2466 32.7717 60.4073C32.9444 60.5679 33.08 60.7643 33.1689 60.9828C33.2889 61.3528 33.1689 61.4028 32.8989 61.4428C32.6289 61.4828 32.2389 61.2828 32.2289 61.7128C32.2189 62.1428 32.6289 62.2628 32.9689 62.3328C33.2684 62.3579 33.5694 62.3579 33.8689 62.3328L32.1589 62.9128Z" fill="#8D5347"/>
<path d="M8.41895 49.183C8.41895 48.773 8.41895 48.363 8.41895 47.953C8.4287 47.6599 8.54289 47.3799 8.74093 47.1635C8.93896 46.9471 9.2078 46.8087 9.49895 46.773C9.79232 46.7528 10.0837 46.8343 10.3241 47.0036C10.5645 47.173 10.7392 47.42 10.8189 47.703C10.969 48.741 10.969 49.7951 10.8189 50.833C10.7563 51.1318 10.5784 51.3939 10.3238 51.5624C10.0692 51.7309 9.75846 51.7922 9.45895 51.733C9.19728 51.6829 8.95873 51.5498 8.77861 51.3535C8.5985 51.1572 8.48641 50.9081 8.45895 50.643C8.44383 50.3999 8.44383 50.1561 8.45895 49.913V49.183H8.41895Z" fill="#FAFDEC"/>
<path d="M10.6791 44.2328C10.6711 44.053 10.6991 43.8734 10.7614 43.7046C10.8238 43.5358 10.9193 43.3812 11.0422 43.2498C11.1652 43.1185 11.3132 43.013 11.4776 42.9397C11.6419 42.8663 11.8192 42.8266 11.9991 42.8228C12.3687 42.8358 12.7187 42.9925 12.9745 43.2595C13.2304 43.5266 13.372 43.8829 13.3691 44.2528C13.3413 44.6059 13.1878 44.9373 12.9364 45.1869C12.685 45.4364 12.3524 45.5875 11.9991 45.6128C11.8202 45.6144 11.6428 45.5793 11.478 45.5098C11.3131 45.4402 11.1643 45.3376 11.0406 45.2083C10.9169 45.079 10.821 44.9257 10.7589 44.7579C10.6967 44.5902 10.6696 44.4114 10.6791 44.2328Z" fill="#FAFCEF"/>
<path d="M27.8689 61.993C27.1089 62.113 26.3389 62.133 25.5989 62.323C25.0771 62.3164 24.5556 62.3498 24.0389 62.423C23.3789 62.553 22.8189 62.253 22.7989 61.853C22.7789 61.453 23.2789 61.233 23.9389 61.193C25.859 61.1057 27.7687 60.8616 29.6489 60.463C29.7236 60.4347 29.8033 60.4219 29.8831 60.4254C29.9629 60.4288 30.0412 60.4484 30.1132 60.483C30.1852 60.5176 30.2494 60.5665 30.302 60.6266C30.3545 60.6868 30.3943 60.757 30.4189 60.833C30.5789 61.183 30.3589 61.383 30.0389 61.523C29.3378 61.7686 28.6089 61.9265 27.8689 61.993Z" fill="#6B372E"/>
</svg>
