<svg width="31" height="31" viewBox="0 0 31 31" fill="none" xmlns="http://www.w3.org/2000/svg">
<path d="M14.0767 4.84619H4.68371C3.97195 4.84619 3.28933 5.12894 2.78604 5.63223C2.28275 6.13552 2 6.81814 2 7.5299V26.3159C2 27.0276 2.28275 27.7102 2.78604 28.2135C3.28933 28.7168 3.97195 28.9996 4.68371 28.9996H23.4697C24.1814 28.9996 24.8641 28.7168 25.3673 28.2135C25.8706 27.7102 26.1534 27.0276 26.1534 26.3159V16.9229" stroke="black" stroke-opacity="0.63" stroke-width="4" stroke-linecap="round" stroke-linejoin="round"/>
<path d="M24.1407 2.83372C24.6746 2.2999 25.3986 2 26.1535 2C26.9085 2 27.6325 2.2999 28.1663 2.83372C28.7001 3.36754 29 4.09156 29 4.8465C29 5.60144 28.7001 6.32546 28.1663 6.85928L15.4187 19.6069L10.0513 20.9488L11.3931 15.5813L24.1407 2.83372Z" stroke="black" stroke-opacity="0.63" stroke-width="4" stroke-linecap="round" stroke-linejoin="round"/>
</svg>
